#!OML:ASF F:\VICON\USERDATA\INSTALL\rory3\rory3.ASF
:FULLY-SPECIFIED
:DEGREES
475
root -1.83142 25.4354 -2.01239 -175.806 -11.5037 174.25
lowerback 15.8927 -1.74807 -0.89744
upperback 3.1603 -2.92296 -1.07404
thorax -5.54808 -1.59125 -0.0176861
lowerneck -8.64021 0.556806 -8.65473
upperneck 26.1707 -0.627326 4.85557
head 9.68993 -1.25123 3.00694
rclavicle 2.79292e-014 -3.97569e-015
rhumerus -31.4594 -3.44711 -72.0336
rradius 45.0876
rwrist 9.01944
rhand -31.4194 5.03662
rfingers 7.12502
rthumb -4.68812 -24.8915
lclavicle 2.79292e-014 -3.97569e-015
lhumerus -21.2763 19.4117 78.4258
lradius 20.8339
lwrist -3.30164
lhand -31.7973 18.0475
lfingers 7.12502
lthumb -5.05298 47.9672
rfemur -19.4632 14.4185 19.9079
rtibia 41.4761
rfoot -24.2632 -12.5013
rtoes 13.0693
lfemur -44.2402 8.88165 -22.9808
ltibia 98.4562
lfoot -3.22359 0.28601
ltoes -7.19217
476
root -1.83687 25.4647 -2.05132 -175.882 -11.3235 174.247
lowerback 15.9423 -1.68054 -0.961848
upperback 3.12903 -2.84547 -1.08942
thorax -5.60627 -1.55128 -0.0107063
lowerneck -8.39727 0.485472 -8.5645
upperneck 25.9305 -0.721408 4.74636
head 9.56562 -1.29057 2.9388
rclavicle 1.8487e-014 -3.97569e-015
rhumerus -31.5702 -3.32735 -72.0641
rradius 45.3094
rwrist 8.97998
rhand -31.6879 4.89497
rfingers 7.12502
rthumb -4.94739 -25.0273
lclavicle 1.8487e-014 -3.97569e-015
lhumerus -21.5757 20.3562 77.8839
lradius 20.1895
lwrist -3.94955
lhand -31.7492 17.8185
lfingers 7.12502
lthumb -5.0066 47.7393
rfemur -18.8176 14.7653 19.9804
rtibia 40.6771
rfoot -24.0446 -12.7532
rtoes 12.6469
lfemur -45.5932 8.86988 -23.1476
ltibia 99.6841
lfoot -3.99306 -0.402769
ltoes -7.83727
477
root -1.84281 25.4964 -2.09579 -175.961 -11.1065 174.354
lowerback 15.8814 -1.59663 -0.902126
upperback 3.13269 -2.72361 -1.0996
thorax -5.57277 -1.49273 -0.0822525
lowerneck -8.41099 0.462916 -8.43141
upperneck 25.8922 -0.746345 4.66305
head 9.55651 -1.29444 2.88385
rclavicle -1.69961e-014 2.78299e-015
rhumerus -31.6169 -3.34385 -72.0847
rradius 45.4706
rwrist 8.98107
rhand -31.7268 4.60848
rfingers 7.12502
rthumb -4.9849 -25.3129
lclavicle -1.69961e-014 2.78299e-015
lhumerus -21.8123 21.2627 77.3449
lradius 19.5471
lwrist -4.83706
lhand -31.7602 17.5224
lfingers 7.12502
lthumb -5.01721 47.443
rfemur -18.1581 15.0935 20.1756
rtibia 39.8557
rfoot -23.7587 -13.0074
rtoes 12.2537
lfemur -46.9826 8.98763 -23.2211
ltibia 100.84
lfoot -4.88927 -1.10078
ltoes -9.22972
478
root -1.8506 25.5286 -2.1428 -176.097 -10.8451 174.573
lowerback 15.8557 -1.5043 -0.714223
upperback 3.13538 -2.56792 -1.08206
thorax -5.563 -1.4191 -0.20232
lowerneck -8.60087 0.466939 -8.53058
upperneck 26.076 -0.754502 4.79932
head 9.65855 -1.29897 2.95112
rclavicle 1.98785e-014 2.38542e-015
rhumerus -31.6345 -3.37962 -72.0698
rradius 45.4781
rwrist 9.03808
rhand -31.7112 4.79851
rfingers 7.12502
rthumb -4.96991 -25.1232
lclavicle 1.98785e-014 2.38542e-015
lhumerus -22.1778 22.2401 76.7833
lradius 18.9358
lwrist -6.0193
lhand -31.8098 17.5653
lfingers 7.12502
lthumb -5.06504 47.4848
rfemur -17.4328 15.3895 20.5095
rtibia 39.0076
rfoot -23.4007 -13.3163
rtoes 11.481
lfemur -48.3209 9.16281 -23.1717
ltibia 101.898
lfoot -5.88565 -1.76183
ltoes -10.0311
479
root -1.85564 25.5516 -2.1849 -176.237 -10.5658 174.86
lowerback 15.9187 -1.42948 -0.50707
upperback 3.08085 -2.4273 -1.03534
thorax -5.66077 -1.35021 -0.295566
lowerneck -8.65452 0.511177 -8.58494
upperneck 26.2316 -0.717212 4.86345
head 9.72109 -1.29038 2.98875
rclavicle 2.84262e-014 -5.56597e-015
rhumerus -31.6991 -3.29277 -72.0991
rradius 45.5622
rwrist 8.94818
rhand -31.5256 4.98132
rfingers 7.12502
rthumb -4.79065 -24.9445
lclavicle 2.84262e-014 -5.56597e-015
lhumerus -22.684 23.482 76.0787
lradius 18.3569
lwrist -7.27436
lhand -31.8371 17.3413
lfingers 7.12502
lthumb -5.09148 47.2601
rfemur -16.7422 15.7951 20.9231
rtibia 38.1511
rfoot -23.072 -13.6927
rtoes 10.8389
lfemur -49.682 9.38439 -23.0126
ltibia 102.875
lfoot -6.96461 -2.42234
ltoes -8.90976
480
root -1.86222 25.5711 -2.22671 -176.35 -10.2975 175.182
lowerback 15.9169 -1.36819 -0.248549
upperback 3.02291 -2.29326 -0.993237
thorax -5.72834 -1.28512 -0.423797
lowerneck -8.57738 0.534539 -8.57198
upperneck 26.2274 -0.714755 4.91664
head 9.70383 -1.28611 3.00479
rclavicle 1.48095e-014 -4.37326e-015
rhumerus -31.7853 -3.24012 -72.1552
rradius 45.692
rwrist 8.86331
rhand -31.4181 4.98901
rfingers 7.12502
rthumb -4.6869 -24.9391
lclavicle 1.48095e-014 -4.37326e-015
lhumerus -23.1312 24.7532 75.2985
lradius 17.7238
lwrist -8.33672
lhand -31.8674 16.5782
lfingers 7.12502
lthumb -5.12071 46.4964
rfemur -16.1069 16.1638 21.3544
rtibia 37.328
rfoot -22.7289 -13.993
rtoes 10.5691
lfemur -51.0723 9.62174 -22.8328
ltibia 103.737
lfoot -8.38289 -2.9846
ltoes -10.0133
481
root -1.87046 25.5959 -2.26963 -176.435 -10.0517 175.28
lowerback 15.9184 -1.30236 -0.179319
upperback 2.97792 -2.1928 -1.02163
thorax -5.77968 -1.23547 -0.512897
lowerneck -8.3813 0.552102 -8.49717
upperneck 26.0907 -0.70779 4.88694
head 9.61643 -1.27757 2.97916
rclavicle -4.14466e-014 -1.0138e-014
rhumerus -31.9231 -3.27365 -72.2199
rradius 45.9027
rwrist 8.89438
rhand -31.3994 4.78681
rfingers 7.12502
rthumb -4.66877 -25.1417
lclavicle -4.14466e-014 -1.0138e-014
lhumerus -23.5774 25.9523 74.546
lradius 17.1406
lwrist -9.3737
lhand -31.8457 16.8859
lfingers 7.12502
lthumb -5.0997 46.8046
rfemur -15.4903 16.4321 21.52
rtibia 36.5765
rfoot -22.4408 -14.1433
rtoes 10.5577
lfemur -52.3904 9.75253 -22.9616
ltibia 104.405
lfoot -8.95537 -3.45531
ltoes -10.1392
482
root -1.87796 25.6257 -2.31361 -176.531 -9.78287 175.174
lowerback 15.987 -1.21854 -0.378738
upperback 2.94521 -2.12175 -1.08873
thorax -5.84699 -1.19778 -0.48331
lowerneck -8.22421 0.590641 -8.32439
upperneck 25.9942 -0.664449 4.75983
head 9.54851 -1.25459 2.90684
rclavicle 2.13694e-014 -1.88845e-014
rhumerus -32.033 -3.19208 -72.3198
rradius 46.041
rwrist 9.00438
rhand -31.4689 4.87719
rfingers 7.12502
rthumb -4.73593 -25.0499
lclavicle 2.13694e-014 -1.88845e-014
lhumerus -24.1015 27.0543 73.7907
lradius 16.6237
lwrist -10.3623
lhand -31.6894 17.884
lfingers 7.12502
lthumb -4.94887 47.8062
rfemur -14.829 16.6488 21.4625
rtibia 35.8692
rfoot -22.2532 -14.0758
rtoes 10.7343
lfemur -53.5669 9.86747 -23.348
ltibia 104.874
lfoot -9.71402 -3.88623
ltoes -11.5521
483
root -1.8881 25.6496 -2.35579 -176.571 -9.47497 175.15
lowerback 15.965 -1.14033 -0.467484
upperback 2.93624 -2.03685 -1.13312
thorax -5.84266 -1.15537 -0.498055
lowerneck -8.22746 0.589515 -8.24421
upperneck 25.9473 -0.652527 4.68138
head 9.53186 -1.2466 2.86622
rclavicle -1.65985e-014 -1.43125e-014
rhumerus -31.9935 -3.16533 -72.3705
rradius 46.1179
rwrist 9.30524
rhand -31.0716 4.74688
rfingers 7.12502
rthumb -4.35232 -25.1884
lclavicle -1.65985e-014 -1.43125e-014
lhumerus -24.5805 27.9379 73.1524
lradius 16.2368
lwrist -11.1191
lhand -31.6105 18.102
lfingers 7.12502
lthumb -4.87263 48.026
rfemur -14.2743 16.8439 21.4576
rtibia 35.186
rfoot -22.0682 -14.0303
rtoes 10.6748
lfemur -54.7923 9.98799 -23.6545
ltibia 105.247
lfoot -10.4636 -4.18186
ltoes -9.23577
484
root -1.89693 25.67 -2.39889 -176.639 -9.13518 175.368
lowerback 15.9029 -1.05507 -0.307267
upperback 2.95472 -1.89686 -1.12897
thorax -5.79257 -1.09026 -0.614975
lowerneck -8.35789 0.584774 -8.30329
upperneck 25.9884 -0.668217 4.82284
head 9.57189 -1.2423 2.92597
rclavicle -2.03754e-015 -1.80894e-014
rhumerus -31.9313 -3.21924 -72.4085
rradius 46.2388
rwrist 9.75383
rhand -30.5663 4.27822
rfingers 7.12502
rthumb -3.8643 -25.6665
lclavicle -2.03754e-015 -1.80894e-014
lhumerus -24.9855 28.5395 72.6271
lradius 15.9868
lwrist -11.6067
lhand -31.6872 18.1611
lfingers 7.12502
lthumb -4.94675 48.0833
rfemur -13.7556 17.1154 21.7154
rtibia 34.5234
rfoot -21.806 -14.0173
rtoes 10.5708
lfemur -56.0678 10.1998 -23.684
ltibia 105.564
lfoot -11.0505 -4.51325
ltoes -8.98503
485
root -1.90475 25.6899 -2.44423 -176.784 -8.7886 175.558
lowerback 15.9671 -0.972739 -0.191842
upperback 2.94229 -1.77046 -1.13369
thorax -5.84264 -1.03072 -0.709756
lowerneck -8.35452 0.610909 -8.27761
upperneck 25.9506 -0.618425 4.78072
head 9.55422 -1.21903 2.91142
rclavicle -6.16232e-015 1.07344e-014
rhumerus -31.9174 -3.11555 -72.5254
rradius 46.2359
rwrist 9.69363
rhand -30.6266 4.52133
rfingers 7.12502
rthumb -3.92257 -25.4223
lclavicle -6.16232e-015 1.07344e-014
lhumerus -25.5003 29.4705 71.9149
lradius 15.701
lwrist -12.2281
lhand -31.4938 18.6289
lfingers 7.12502
lthumb -4.75994 48.5555
rfemur -13.1308 17.4082 21.9708
rtibia 33.8811
rfoot -21.6349 -13.9467
rtoes 10.8331
lfemur -57.1878 10.4371 -23.7627
ltibia 105.737
lfoot -11.5988 -4.92677
ltoes -11.0351
486
root -1.91453 25.7058 -2.48576 -176.875 -8.49658 175.746
lowerback 16.0106 -0.940569 -0.0173978
upperback 2.91451 -1.6996 -1.16198
thorax -5.90036 -0.998813 -0.851998
lowerneck -8.32853 0.637468 -8.15331
upperneck 25.8276 -0.55005 4.64202
head 9.50112 -1.18248 2.847
rclavicle -3.62782e-015 -1.21259e-014
rhumerus -31.8627 -2.91539 -72.7809
rradius 46.1909
rwrist 9.28471
rhand -31.3388 5.00197
rfingers 7.12502
rthumb -4.61029 -24.9279
lclavicle -3.62782e-015 -1.21259e-014
lhumerus -26.0387 30.294 71.1449
lradius 15.4266
lwrist -12.8065
lhand -31.3079 18.8823
lfingers 7.12502
lthumb -4.58042 48.8128
rfemur -12.5558 17.5818 22.2036
rtibia 33.2067
rfoot -21.3924 -13.8761
rtoes 11.0036
lfemur -58.3883 10.603 -23.8748
ltibia 105.825
lfoot -12.3862 -5.25538
ltoes -13.4875
487
root -1.92406 25.7193 -2.52755 -176.918 -8.19699 175.811
lowerback 15.9917 -0.865383 0.0332504
upperback 2.87607 -1.59085 -1.19743
thorax -5.93137 -0.94551 -0.94094
lowerneck -8.36399 0.651043 -8.19393
upperneck 25.8976 -0.548315 4.71061
head 9.5321 -1.18284 2.87901
rclavicle 9.39258e-015 7.35503e-015
rhumerus -31.8892 -2.79748 -72.9221
rradius 46.251
rwrist 9.06531
rhand -31.7559 5.42386
rfingers 7.12502
rthumb -5.01307 -24.4968
lclavicle 9.39258e-015 7.35503e-015
lhumerus -26.5839 30.9801 70.48
lradius 15.1626
lwrist -13.4096
lhand -31.3332 18.7905
lfingers 7.12502
lthumb -4.60486 48.7204
rfemur -12.0064 17.5724 22.2989
rtibia 32.4846
rfoot -21.0523 -13.7512
rtoes 10.4835
lfemur -59.5105 10.7164 -24.1212
ltibia 105.771
lfoot -13.0814 -5.38033
ltoes -14.7094
488
root -1.93544 25.7372 -2.57624 -176.974 -7.77944 175.925
lowerback 15.8722 -0.752303 0.103243
upperback 2.88638 -1.42996 -1.21949
thorax -5.8543 -0.868227 -1.03952
lowerneck -8.46197 0.66711 -8.29661
upperneck 26.013 -0.542916 4.83553
head 9.59073 -1.18219 2.94295
rclavicle -2.25621e-014 -8.15017e-015
rhumerus -31.865 -2.62163 -73.0366
rradius 46.3488
rwrist 8.92777
rhand -31.6991 5.40249
rfingers 7.12502
rthumb -4.95815 -24.5195
lclavicle -2.25621e-014 -8.15017e-015
lhumerus -27.1144 31.629 69.8772
lradius 14.9783
lwrist -13.9037
lhand -31.5224 18.6032
lfingers 7.12502
lthumb -4.78753 48.5291
rfemur -11.4081 17.6716 22.4609
rtibia 31.7418
rfoot -20.6419 -13.6942
rtoes 9.42674
lfemur -60.5554 10.9746 -24.3433
ltibia 105.577
lfoot -13.512 -5.4645
ltoes -14.9716
